# xmcd
#
# Track frame offsets: 
#        150
#        21391
#        42356
#        66944
#        87426
#        106223
#        124376
#        140839
#        160996
#        179378
#
# Disc length: 2554 seconds
#
# Revision: 2
# Processed by: cddbd v1.5.2PL0 Copyright (c) Steve Scherf et al.
# Submitted via: ExactAudioCopy v1.3
#
DISCID=9309f80a
DTITLE=Various Artist - Ruf Records Sampler 1999
DYEAR=1999
DGENRE=Blues
TTITLE0=Walter Trout - Livin' every day
TTITLE1=Aynsley Lister - Won't take you back
TTITLE2=Bernard Allison - The way love was meant to be
TTITLE3=Spooky Tooth - Sunshine
TTITLE4=The Nighthawks - Jump into my fire
TTITLE5=Friend N' Fellow - Father's home
TTITLE6=Stavin' Chain - Poison
TTITLE7=Jimmy Johnson - End of the road
TTITLE8=The Paladins - Judgement Day
TTITLE9=Kevin Coyne - Sugar candy taxi
EXTD=YEAR: 1999
EXTT0=
EXTT1=
EXTT2=
EXTT3=
EXTT4=
EXTT5=
EXTT6=
EXTT7=
EXTT8=
EXTT9=
PLAYORDER=
